<?xml version="1.0"?>
<svg width="120" height="160" xmlns="http://www.w3.org/2000/svg" xmlns:svg="http://www.w3.org/2000/svg" enable-background="new 0 0 310.4 200.9" version="1.0" xml:space="preserve">
 <style type="text/css">.st0{fill:#FFFFFF;}
	.st1{fill:#085EA9;}
	.st2{fill:#151011;}</style>
 <g class="layer">
  <title>Layer 1</title>
  <g id="svg_1">
   <g id="svg_2">
    <path class="st0" d="m117,2.7l-114,0l0,154.3l114,0l0,-154.3l0,0z" id="svg_3"/>
   </g>
   <polyline id="svg_4" points="115.39996337890625,4.29998779296875 115.39996337890625,155.3000030517578 4.79998779296875,155.3000030517578 4.79998779296875,4.29998779296875 115.39996337890625,4.29998779296875 "/>
   <g id="svg_5">
    <rect class="st0" height="23" id="svg_6" width="98.7" x="10.8" y="10"/>
   </g>
   <g id="svg_7">
    <rect class="st0" height="89.8" id="svg_8" width="98.6" x="11" y="38.7"/>
   </g>
   <g id="svg_9">
    <path d="m16.6,14.4c2.2,0 3.1,0.6 3.1,2.6l0,3c0,1.9 -0.9,2.6 -2.9,2.6l-0.5,0l0,6.1l-1.8,0l0,-14.3l2.1,0zm-0.4,6.7l0.3,0c1.1,0 1.3,-0.4 1.3,-1.7l0,-1.9c0,-1.3 -0.2,-1.7 -1.3,-1.7l-0.3,0l0,5.3z" id="svg_10"/>
    <path d="m23.1,14.4c2.1,0 3,0.6 3,2.4l0,2.3c0,1.4 -0.5,2.1 -2,2.2c1.6,0.1 2.1,0.8 2.1,2.4l0,5l-2,0l0,-5c0,-1.3 -0.2,-1.6 -1.5,-1.6l-0.4,0l0,6.6l-1.8,0l0,-14.3l2.6,0zm-0.7,6.2l0.4,0c1.2,0 1.4,-0.4 1.4,-1.6l0,-1.6c0,-1.2 -0.3,-1.6 -1.4,-1.6l-0.4,0l0,4.8z" id="svg_11"/>
    <path d="m29.4,14.4l0,14.3l-1.9,0l0,-14.3l1.9,0z" id="svg_12"/>
    <path d="m32,14.4l1.3,12l0.1,0l1.2,-12l1.6,0l-1.8,14.3l-2.4,0l-2,-14.3c0,0 2,0 2,0z" id="svg_13"/>
    <path d="m41,14.4l2.2,14.3l-2,0l-0.5,-3.6l-2.4,0l-0.5,3.6l-1.6,0l2.3,-14.3c0,0 2.5,0 2.5,0zm-2.4,9.2l2,0l-0.9,-7.6l-0.1,0l-1,7.6z" id="svg_14"/>
    <path d="m49.2,18.3l-1.8,0l0,-1c0,-1.1 -0.2,-1.7 -0.8,-1.7c-0.8,0 -0.9,0.6 -0.9,2l0,7.8c0,1.4 0.1,2 0.9,2c0.6,0 0.8,-0.5 0.8,-1.6l0,-1.3l1.9,0l0,1.3c0,2.2 -0.6,3.1 -2.7,3.1c-2.2,0 -2.7,-1.1 -2.7,-3.8l0,-7.1c0,-2.7 0.6,-3.8 2.7,-3.8c2.1,0 2.7,0.9 2.7,3.1l0,1l-0.1,0z" id="svg_15"/>
    <path d="m51,14.4l1.3,6.3l0.1,0l1.2,-6.3l1.6,0l-2.2,8.3l0,5.9l-1.8,0l0,-5.9l-2,-8.3l1.8,0z" id="svg_16"/>
    <path d="m64,18.3l-1.8,0l0,-1c0,-1.1 -0.2,-1.7 -0.8,-1.7c-0.8,0 -0.9,0.6 -0.9,2l0,7.8c0,1.4 0.1,2 0.9,2c0.6,0 0.8,-0.5 0.8,-1.6l0,-1.3l1.9,0l0,1.3c0,2.2 -0.6,3.1 -2.7,3.1c-2.2,0 -2.7,-1.1 -2.7,-3.8l0,-7.1c0,-2.7 0.6,-3.8 2.7,-3.8s2.7,0.9 2.7,3.1l-0.1,1l0,0z" id="svg_17"/>
    <path d="m69.4,14.4l0,1.5l-2.4,0l0,4.5l2.3,0l0,1.5l-2.3,0l0,5.2l2.6,0l0,1.5l-4.4,0l0,-14.2l4.2,0z" id="svg_18"/>
    <path d="m73,14.4c2.1,0 3,0.6 3,2.4l0,2.3c0,1.4 -0.5,2.1 -2,2.2c1.6,0.1 2.1,0.8 2.1,2.4l0,5l-1.9,0l0,-5c0,-1.3 -0.2,-1.6 -1.5,-1.6l-0.4,0l0,6.6l-1.8,0l0,-14.3l2.5,0zm-0.6,6.2l0.4,0c1.2,0 1.4,-0.4 1.4,-1.6l0,-1.6c0,-1.2 -0.3,-1.6 -1.4,-1.6l-0.4,0l0,4.8z" id="svg_19"/>
    <path d="m82,14.4l0,1.5l-1.7,0l0,12.7l-1.9,0l0,-12.7l-1.7,0l0,-1.5l5.3,0z" id="svg_20"/>
    <path d="m84.5,14.4l0,14.3l-1.9,0l0,-14.3l1.9,0z" id="svg_21"/>
    <path d="m90.4,14.4l0,1.5l-2.4,0l0,4.7l2.3,0l0,1.5l-2.3,0l0,6.6l-1.8,0l0,-14.3l4.2,0z" id="svg_22"/>
    <path d="m93.3,14.4l0,14.3l-1.9,0l0,-14.3l1.9,0z" id="svg_23"/>
    <path d="m99,14.4l0,1.5l-2.4,0l0,4.5l2.3,0l0,1.5l-2.3,0l0,5.2l2.6,0l0,1.5l-4.4,0l0,-14.2l4.2,0z" id="svg_24"/>
    <path d="m102.3,14.4c3,0 3.6,0.8 3.6,4l0,6.3c0,3.1 -0.6,4 -3.6,4l-1.9,0l0,-14.3l1.9,0zm-0.1,12.8l0.4,0c1.2,0 1.5,-0.3 1.5,-1.6l0,-8.2c0,-1.2 -0.3,-1.6 -1.5,-1.6l-0.4,0l0,11.4z" id="svg_25"/>
   </g>
   <g id="svg_26">
    <g id="svg_27">
     <polygon class="st0" id="svg_28" points="11.10003662109375,148.10000610351562 11.10003662109375,134.60000610351562 30.9000244140625,134.60000610351562 30.9000244140625,137.8000030517578 19.10003662109375,137.8000030517578 19.10003662109375,139.6999969482422 29.10003662109375,139.6999969482422 29.10003662109375,142.89999389648438 19.10003662109375,142.89999389648438 19.10003662109375,145 31.4000244140625,145 31.4000244140625,148.10000610351562 "/>
    </g>
    <g id="svg_29">
     <path class="st0" d="m48.3,138.6c-0.1,-0.5 -0.6,-0.7 -1.2,-0.9c-0.6,-0.2 -1.3,-0.2 -2.1,-0.2c-1.8,0 -2.5,0.3 -2.5,0.8c0,2 14,0.8 14,5.7c0,3.1 -4.7,4.7 -11.4,4.7c-6.4,0 -10.6,-2.1 -10.8,-4.5l7.6,0c0.2,0.5 0.6,0.8 1.3,1.1c0.6,0.2 1.5,0.3 2.3,0.3c2,0 3.3,-0.3 3.3,-1c0,-2 -14,-0.6 -14,-5.8c0,-2.9 4.5,-4.3 10.6,-4.3c6.8,0 9.8,1.9 10.4,4.3l-7.5,0l0,-0.2z" id="svg_30"/>
    </g>
    <g id="svg_31">
     <path class="st0" d="m68.4,140.5l3.1,0c2.5,0 3.8,-0.4 3.8,-1.3c0,-1 -1.4,-1.4 -3.2,-1.4l-3.7,0c0,0 0,2.7 0,2.7zm0,2.9l0,4.7l-8,0l0,-13.5l11.5,0c8.1,0 10.8,1.2 10.8,3.9c0,1.6 -1.2,2.9 -4.1,3.3c2.6,0.5 4.1,0.8 4.1,3.6c0,1.8 -0.1,2.4 0.8,2.4l0,0.4l-8.1,0c-0.2,-0.3 -0.4,-1.2 -0.4,-2.4c0,-1.8 -0.5,-2.3 -4.3,-2.3l-2.3,-0.1l0,0z" id="svg_32"/>
    </g>
    <g id="svg_33">
     <path class="st0" d="m95.5,137.8l0,2.3l3.3,0c1.6,0 2.7,-0.4 2.7,-1.2c0,-1.1 -1.6,-1.1 -3.2,-1.1l-2.8,0zm0,4.7l0,2.5l3.5,0c2,0 3.5,-0.2 3.5,-1.2c0,-1.2 -1.9,-1.3 -4.4,-1.3l-2.6,0zm-8,5.6l0,-13.5l11.6,0c5.5,0 9.8,0.7 9.8,3.4c0,1.4 -1.6,2.4 -3.2,2.9c2.6,0.4 4.1,1.6 4.1,3.1c0,3 -4.2,4.1 -10.5,4.1l-11.8,0z" id="svg_34"/>
    </g>
   </g>
   <path class="st0" d="m22.1,68.5c-1.9,1.3 -3.3,3 -3.2,5.6c0.1,2.7 1.8,4.3 4.1,5.4c-1.3,2.2 -1.9,4.3 -0.7,6.6c1.2,2.4 3.3,3.2 5.9,3.2c0,0.7 0,1.2 0,1.7c-0.1,4.1 3.7,6.9 7.6,5.6c1.1,-0.4 1.4,-0.1 1.8,0.9c1.4,4 6.2,5.2 9.4,2.3c0.3,-0.3 0.6,-0.5 1,-0.9c1.6,2.1 3.6,3.1 6.1,2.7c2.6,-0.4 3.9,-2.3 4.9,-4.6c2.3,1.2 4.6,1.4 6.7,0c2.2,-1.5 2.7,-3.7 2.5,-6.2c2.5,0 4.7,-0.5 6.1,-2.7c1.4,-2.2 1,-4.5 -0.2,-6.8c2.4,-0.9 4.1,-2.4 4.5,-5c0.4,-2.6 -0.9,-4.5 -2.8,-6c0.2,-0.2 0.2,-0.4 0.3,-0.5c3.5,-3.2 2,-9.2 -2.6,-10.1c-0.8,-0.2 -0.7,-0.6 -0.6,-1.2c0.2,-1.1 0.4,-2.3 0.2,-3.4c-0.6,-3 -3,-4.5 -6.4,-4.3c-0.9,0.1 -1.3,-0.1 -1.4,-1.1c-0.3,-3.1 -2.8,-5.3 -5.9,-5.1c-1.3,0.1 -2.6,0.7 -4.1,1.1c-1.1,-1.9 -2.6,-3.5 -5.3,-3.6c-2.7,-0.1 -4.4,1.3 -5.8,3.6c-2,-1.7 -4.1,-2.4 -6.6,-1.4s-3.5,3 -3.8,5.6c-0.4,-0.1 -0.6,-0.1 -0.8,-0.2c-5.2,-1.1 -8.4,3.3 -7.1,7.3c0.2,0.7 -0.1,0.9 -0.8,1.1c-3.5,0.8 -5.3,3.4 -4.6,6.8c0.2,1.3 0.9,2.4 1.6,3.6z" id="svg_35"/>
   <path class="st0" d="m81.4,75.2c0,0.2 -0.1,0.3 -0.1,0.4c-0.1,2.8 -1.2,5 -3.3,6.8c-0.3,0.2 -0.4,0.9 -0.3,1.4c0.6,4.3 -1.8,8.2 -6,9.5c-0.4,0.1 -0.7,0.4 -1.1,0.6c0.3,0.3 0.6,0.7 0.9,0.9c6.3,3.4 12.6,6.7 18.8,10.1c0.3,0.2 0.7,0.3 1,0.5c0,-3.9 0,-7.6 0,-11.4c0,-0.5 0.4,-1.1 0.8,-1.4c1.4,-1 2.9,-1.9 4.3,-2.8c1.7,-1.1 3.5,-2.3 5.4,-3.5c-6.8,-3.9 -13.4,-7.5 -20.4,-11.1z" id="svg_36"/>
   <path class="st0" d="m57.8,125.7c0.4,-0.4 0.6,-0.7 0.9,-1c2.1,-2.7 4.2,-5.3 6.4,-8c0.3,-0.3 0.8,-0.7 1.2,-0.7c1.5,0.1 2.9,0.3 4.4,0.5c2.4,0.3 4.7,0.5 7.4,0.8c-2.9,-6.9 -5.6,-13.7 -8.4,-20.5c-2.7,3.2 -4.6,4 -8.6,3.8c-0.4,0 -1,0.3 -1.3,0.7c-1.8,2.1 -4,3.2 -6.7,3.1c-1.4,-0.1 -2.7,-0.5 -4.2,-0.8c2.9,7.4 5.9,14.7 8.9,22.1z" id="svg_37"/>
   <path class="st0" d="m101.8,117.1c-2.6,0 -4.6,2 -4.6,4.6c0,2.5 2.1,4.5 4.6,4.5c2.6,0 4.5,-2 4.5,-4.6c0,-2.5 -2,-4.5 -4.5,-4.5z" id="svg_38"/>
   <path class="st1" d="m22.1,68.5c-0.6,-1.3 -1.4,-2.4 -1.6,-3.6c-0.7,-3.4 1.2,-6 4.6,-6.8c0.7,-0.2 1,-0.4 0.8,-1.1c-1.3,-4 1.9,-8.4 7.1,-7.3c0.2,0 0.5,0.1 0.8,0.2c0.3,-2.5 1.3,-4.6 3.8,-5.6c2.4,-0.9 4.5,-0.2 6.6,1.4c1.4,-2.3 3.1,-3.7 5.8,-3.6c2.6,0.1 4.2,1.7 5.3,3.6c1.5,-0.4 2.8,-1 4.1,-1.1c3.1,-0.2 5.6,2 5.9,5.1c0.1,1.1 0.5,1.2 1.4,1.1c3.4,-0.2 5.8,1.3 6.4,4.3c0.2,1.1 0,2.3 -0.2,3.4c-0.1,0.6 -0.2,1.1 0.6,1.2c4.6,1 6.2,6.9 2.6,10.1c-0.1,0.1 -0.2,0.3 -0.3,0.5c2,1.5 3.2,3.4 2.8,6c-0.4,2.6 -2.1,4 -4.5,5c1.2,2.3 1.6,4.5 0.2,6.8c-1.4,2.2 -3.6,2.8 -6.1,2.7c0.2,2.5 -0.3,4.7 -2.5,6.2c-2.2,1.4 -4.4,1.2 -6.7,0c-0.9,2.3 -2.2,4.2 -4.9,4.6c-2.6,0.4 -4.5,-0.6 -6.1,-2.7c-0.4,0.3 -0.7,0.6 -1,0.9c-3.2,2.9 -8,1.7 -9.4,-2.3c-0.4,-1 -0.7,-1.3 -1.8,-0.9c-3.9,1.3 -7.7,-1.5 -7.6,-5.6c0,-0.5 0,-1 0,-1.7c-2.5,0 -4.6,-0.8 -5.9,-3.2c-1.2,-2.3 -0.6,-4.5 0.7,-6.6c-2.3,-1.1 -4,-2.7 -4.1,-5.4c-0.1,-2.6 1.3,-4.3 3.2,-5.6zm27,28.7c13.9,0 25.1,-11.1 25.2,-25c0.1,-13.8 -11.3,-25.1 -25.2,-25.1c-13.7,0 -25,11.2 -25,24.9c-0.1,13.9 11.1,25.2 25,25.2z" id="svg_39"/>
   <path class="st1" d="m81.4,75.2c6.9,3.7 13.6,7.3 20.5,11c-1.9,1.2 -3.6,2.4 -5.4,3.5c-1.4,0.9 -2.9,1.8 -4.3,2.8c-0.4,0.3 -0.8,0.9 -0.8,1.4c-0.1,3.8 0,7.5 0,11.4c-0.3,-0.1 -0.7,-0.3 -1,-0.5c-6.3,-3.4 -12.6,-6.7 -18.8,-10.1c-0.4,-0.2 -0.6,-0.6 -0.9,-0.9c0.4,-0.2 0.7,-0.5 1.1,-0.6c4.1,-1.3 6.6,-5.2 6,-9.5c-0.1,-0.4 0,-1.1 0.3,-1.4c2.1,-1.8 3.2,-4 3.3,-6.8c0,0 0,-0.1 0,-0.3z" id="svg_40"/>
   <path class="st1" d="m57.8,125.7c-3.1,-7.4 -6.1,-14.7 -9.1,-22c1.5,0.3 2.8,0.7 4.2,0.8c2.7,0.1 4.9,-1 6.7,-3.1c0.3,-0.4 0.9,-0.7 1.3,-0.7c4,0.2 5.9,-0.6 8.6,-3.8c2.8,6.8 5.6,13.6 8.4,20.5c-2.6,-0.3 -5,-0.6 -7.4,-0.8c-1.5,-0.2 -2.9,-0.4 -4.4,-0.5c-0.4,0 -1,0.3 -1.2,0.7c-2.2,2.6 -4.3,5.3 -6.4,8c-0.1,0.2 -0.3,0.5 -0.7,0.9z" id="svg_41"/>
   <path class="st0" d="m49.1,97.2c-13.9,0 -25,-11.3 -25,-25.3c0,-13.7 11.3,-24.9 25,-24.9c13.9,0.1 25.3,11.4 25.2,25.2s-11.4,25 -25.2,25zm-12,-25.9c0.2,-2.3 0.4,-4.4 0.7,-6.7c-2.7,-1 -5.1,-2.3 -6.9,-4.7c-2.1,2.6 -3.9,8.3 -3.6,11.3c3.3,0.1 6.5,0.1 9.8,0.1zm-9.9,1.9c0.3,4.2 1.4,7.9 3.7,11.4c1.8,-2.5 4.3,-3.7 6.9,-4.8c-0.2,-2.3 -0.4,-4.4 -0.7,-6.6c-3.3,0 -6.5,0 -9.9,0zm40.3,-13.2c-1.7,2.2 -3.9,3.5 -6.4,4.5c-0.3,0.1 -0.5,0.6 -0.5,1c0.1,1.6 0.3,3.3 0.4,4.9c0,0.8 0.3,1.1 1.1,1.1c1.9,0 3.8,0 5.8,0c3.4,0 3.4,0 2.8,-3.3c-0.4,-3 -1.4,-5.7 -3.2,-8.2zm0,24.5c2.1,-3.4 3.4,-6.9 3.5,-10.8c0,-0.2 -0.6,-0.7 -0.9,-0.7c-2.7,-0.1 -5.4,0 -8,0c-0.7,0 -1,0.3 -1,1c-0.1,1.7 -0.3,3.3 -0.4,5c0,0.3 0.3,0.8 0.5,1c2.5,1 4.7,2.3 6.3,4.5zm-11.1,-28.1c-2.4,0.5 -4.3,0.8 -6.2,1.3c-0.3,0.1 -0.7,0.4 -0.7,0.6c-0.1,2.1 0,4.2 0,6.7c3.2,-0.4 6.2,-0.8 9.5,-1.3c-1,-2.8 -1.8,-5.2 -2.6,-7.3zm2.6,24.7c-3.2,-0.9 -6.2,-1.4 -9.4,-1.3c0,2.4 0,4.6 0,6.7c2.2,0.5 4.4,1.1 6.8,1.7c0.8,-2.2 1.6,-4.6 2.6,-7.1zm-11,-23.2c-2,-0.5 -3.8,-1 -5.9,-1.6c-0.8,2.3 -1.7,4.6 -2.6,7.3c3.1,0.5 5.8,0.9 8.6,1.3c-0.1,-2.6 -0.1,-4.9 -0.1,-7zm-0.1,28.7c0,-2.2 0,-4.5 0,-7c-2.8,0.4 -5.5,0.8 -8.5,1.3c1,2.7 1.9,5.1 2.7,7.3c2.1,-0.6 3.9,-1.1 5.8,-1.6zm1.7,-15.2c3.2,0 6.3,0 9.4,0c0.2,0 0.7,-0.5 0.6,-0.7c-0.1,-1.6 -0.2,-3.2 -0.4,-4.8c0,-0.2 -0.5,-0.5 -0.7,-0.5c-3,0.4 -5.9,0.9 -8.9,1.4c0,1.4 0,2.9 0,4.6zm0,6.3c3,0.5 5.9,0.9 8.7,1.4c0.7,0.1 1,0 1,-0.7c0.1,-1.4 0.3,-2.7 0.4,-4.1c0.1,-0.9 -0.2,-1.3 -1.2,-1.3c-2.6,0.1 -5.3,0 -7.9,0c-0.3,0 -0.7,0.1 -1,0.1c0,1.7 0,3.2 0,4.6zm-10.4,-12.4c-0.2,2 -0.4,3.9 -0.5,6c3.2,0 6.3,0 9.3,0c0,-1.6 0,-3.2 0,-4.7c-3,-0.4 -5.8,-0.8 -8.8,-1.3zm0,13.8c3,-0.5 5.9,-0.9 8.8,-1.3c0,-1.5 0,-3 0,-4.6c-3.1,0 -6.1,0 -9.3,0c0.1,2.1 0.3,4 0.5,5.9zm21.2,-16.2c2.2,-0.7 4.3,-1.8 5.8,-3.7c0.2,-0.3 0.2,-1 -0.1,-1.2c-1.7,-1.6 -3.4,-3.1 -5.2,-4.6c-0.2,-0.2 -0.8,-0.2 -1,0c-0.8,0.6 -1.6,1.4 -2.2,2c0.8,2.4 1.7,4.9 2.7,7.5zm-2.7,26.3c0.7,0.6 1.4,1.3 2.2,1.9c0.2,0.2 0.8,0.2 1,0.1c1.8,-1.5 3.6,-3.1 5.3,-4.7c0.2,-0.2 0.3,-0.8 0.1,-1c-1.5,-2.1 -3.6,-3.1 -5.9,-3.9c-1,2.6 -1.9,5.1 -2.7,7.6zm-19.6,-26.3c0.6,-1.8 1.1,-3.4 1.6,-4.9c0.3,-0.9 1.1,-1.8 0.9,-2.5c-0.1,-0.7 -1.3,-1.2 -1.9,-1.9c-0.5,-0.6 -0.9,-0.7 -1.5,-0.2c-1.6,1.5 -3.3,2.9 -4.9,4.4c-0.6,0.6 -0.5,1.1 0,1.6c1.7,1.7 3.6,2.7 5.8,3.5zm-0.1,18.7c-2.1,0.8 -4.1,1.7 -5.6,3.5c-0.3,0.3 -0.5,1 -0.3,1.2c1.6,2.1 3.6,3.9 5.9,5.2c1,-0.9 1.8,-1.6 2.7,-2.3c-0.9,-2.5 -1.7,-5 -2.7,-7.6zm11.6,12.1c2.6,-0.2 4.2,-1.9 5.7,-3.9c-1.9,-0.8 -3.7,-1.4 -5.7,-1.1c0,1.7 0,3.3 0,5zm0,-42.9c0,1.8 0,3.4 0,5.3c1.9,-0.4 3.7,-0.8 5.7,-1.3c-1.5,-2.2 -3.1,-3.7 -5.7,-4zm-1.6,0.1c-2.1,0.6 -3.5,2 -4.9,3.9c1.7,0.4 3.2,0.8 4.9,1.2c0,-1.8 0,-3.4 0,-5.1zm-4.9,38.8c1.4,1.9 2.8,3.3 4.9,3.9c0,-1.7 0,-3.3 0,-5.1c-1.7,0.4 -3.2,0.7 -4.9,1.2zm-3.7,-37.6c0.9,0.7 1.6,1.3 2.3,1.8c1.1,-1.2 2,-2.3 3,-3.4c0,-0.1 -0.1,-0.1 -0.1,-0.2c-1.6,0.5 -3.3,1.1 -5.2,1.8zm0,40.3c2,0.7 3.6,1.2 5.2,1.8c0,-0.1 0.1,-0.1 0.1,-0.2c-1,-1.1 -2,-2.2 -3,-3.4c-0.7,0.5 -1.3,1 -2.3,1.8zm17.4,-1.8c-1.1,1.2 -2.1,2.3 -3.1,3.4c0,0.1 0,0.1 0.1,0.2c1.7,-0.6 3.3,-1.1 5.2,-1.8c-1,-0.7 -1.6,-1.3 -2.2,-1.8zm0,-36.7c0.7,-0.5 1.3,-1.1 2.2,-1.8c-1.9,-0.7 -3.6,-1.2 -5.2,-1.8c0,0.1 0,0.1 0,0.2c0.9,1.1 1.9,2.1 3,3.4z" id="svg_42"/>
   <path class="st1" d="m37.1,71.3c-3.3,0 -6.5,0 -9.8,0c-0.3,-3 1.5,-8.7 3.6,-11.3c1.8,2.3 4.2,3.6 6.9,4.7c-0.4,2.2 -0.5,4.4 -0.7,6.6z" id="svg_43"/>
   <path class="st1" d="m27.2,73.2c3.4,0 6.6,0 9.9,0c0.2,2.2 0.4,4.3 0.7,6.6c-2.6,1 -5.1,2.3 -6.9,4.8c-2.5,-3.6 -3.5,-7.3 -3.7,-11.4z" id="svg_44"/>
   <path class="st1" d="m67.5,60c1.7,2.5 2.7,5.2 3.3,8.1c0.5,3.3 0.5,3.3 -2.9,3.3c-1.9,0 -3.8,0 -5.8,0c-0.8,0 -1.1,-0.3 -1.1,-1.1c-0.1,-1.6 -0.3,-3.3 -0.4,-4.9c0,-0.3 0.2,-0.9 0.5,-1c2.6,-0.9 4.8,-2.2 6.4,-4.4z" id="svg_45"/>
   <path class="st1" d="m67.5,84.5c-1.7,-2.2 -3.9,-3.5 -6.4,-4.5c-0.3,-0.1 -0.5,-0.6 -0.5,-1c0.1,-1.7 0.3,-3.3 0.4,-5c0,-0.7 0.3,-1 1,-1c2.7,0 5.4,0 8,0c0.3,0 0.9,0.4 0.9,0.7c0.1,4 -1.2,7.5 -3.4,10.8z" id="svg_46"/>
   <path class="st1" d="m56.4,56.4c0.8,2.1 1.6,4.5 2.6,7.2c-3.3,0.5 -6.3,0.9 -9.5,1.3c0,-2.4 0,-4.6 0,-6.7c0,-0.2 0.4,-0.6 0.7,-0.6c2,-0.4 3.8,-0.7 6.2,-1.2z" id="svg_47"/>
   <path class="st1" d="m59,81.1c-0.9,2.5 -1.8,4.9 -2.5,7.1c-2.5,-0.6 -4.6,-1.1 -6.8,-1.7c0,-2.1 0,-4.4 0,-6.7c3,-0.1 6.1,0.4 9.3,1.3z" id="svg_48"/>
   <path class="st1" d="m48,57.9c0,2.2 0,4.5 0,7c-2.8,-0.4 -5.5,-0.8 -8.6,-1.3c1,-2.7 1.8,-5.1 2.6,-7.3c2.1,0.5 4,1 6,1.6z" id="svg_49"/>
   <path class="st1" d="m47.9,86.6c-1.9,0.5 -3.7,1 -5.9,1.6c-0.8,-2.2 -1.8,-4.6 -2.8,-7.3c3,-0.5 5.7,-0.9 8.6,-1.3c0.1,2.6 0.1,4.8 0.1,7z" id="svg_50"/>
   <path class="st1" d="m49.6,71.4c0,-1.7 0,-3.2 0,-4.6c3,-0.5 6,-1 8.9,-1.4c0.2,0 0.7,0.3 0.7,0.5c0.2,1.6 0.4,3.2 0.4,4.8c0,0.2 -0.4,0.7 -0.6,0.7c-3.1,0 -6.2,0 -9.4,0z" id="svg_51"/>
   <path class="st1" d="m49.6,77.7c0,-1.4 0,-2.9 0,-4.5c0.3,0 0.7,-0.1 1,-0.1c2.6,0 5.3,0 7.9,0c1,0 1.3,0.4 1.2,1.3c-0.2,1.3 -0.3,2.7 -0.4,4.1c-0.1,0.7 -0.4,0.8 -1,0.7c-2.9,-0.6 -5.7,-1 -8.7,-1.5z" id="svg_52"/>
   <path class="st1" d="m39.2,65.3c3,0.5 5.8,0.9 8.8,1.3c0,1.5 0,3 0,4.7c-3.1,0 -6.1,0 -9.3,0c0.1,-2 0.3,-4 0.5,-6z" id="svg_53"/>
   <path class="st1" d="m39.2,79.1c-0.2,-1.9 -0.4,-3.9 -0.6,-5.9c3.2,0 6.3,0 9.3,0c0,1.6 0,3.1 0,4.6c-2.8,0.4 -5.7,0.9 -8.7,1.3z" id="svg_54"/>
   <path class="st1" d="m60.4,62.9c-0.9,-2.6 -1.8,-5 -2.7,-7.5c0.7,-0.6 1.4,-1.4 2.2,-2c0.2,-0.2 0.8,-0.2 1,0c1.8,1.5 3.5,3 5.2,4.6c0.2,0.2 0.3,0.9 0.1,1.2c-1.5,1.9 -3.7,2.9 -5.8,3.7z" id="svg_55"/>
   <path class="st1" d="m57.7,89.2c0.9,-2.5 1.8,-4.9 2.7,-7.5c2.3,0.8 4.4,1.8 5.9,3.9c0.1,0.2 0.1,0.8 -0.1,1c-1.7,1.6 -3.5,3.1 -5.3,4.7c-0.2,0.2 -0.8,0.1 -1,-0.1c-0.9,-0.7 -1.5,-1.4 -2.2,-2z" id="svg_56"/>
   <path class="st1" d="m38.1,62.9c-2.2,-0.8 -4.1,-1.8 -5.6,-3.5c-0.5,-0.6 -0.7,-1.1 0,-1.6c1.6,-1.5 3.3,-2.9 4.9,-4.4c0.6,-0.5 1,-0.4 1.5,0.2c0.6,0.7 1.7,1.2 1.9,1.9c0.1,0.7 -0.6,1.6 -0.9,2.5c-0.7,1.6 -1.2,3.2 -1.8,4.9z" id="svg_57"/>
   <path class="st1" d="m38,81.6c0.9,2.6 1.8,5.1 2.7,7.6c-0.8,0.7 -1.7,1.5 -2.7,2.3c-2.3,-1.3 -4.3,-3.1 -5.9,-5.2c-0.2,-0.2 0.1,-0.9 0.3,-1.2c1.5,-1.8 3.5,-2.7 5.6,-3.5z" id="svg_58"/>
   <path class="st1" d="m49.6,93.7c0,-1.7 0,-3.3 0,-5c2,-0.2 3.8,0.4 5.7,1.1c-1.5,2 -3.1,3.7 -5.7,3.9z" id="svg_59"/>
   <path class="st1" d="m49.6,50.8c2.6,0.3 4.2,1.9 5.7,4.1c-2,0.4 -3.8,0.8 -5.7,1.3c0,-2 0,-3.7 0,-5.4z" id="svg_60"/>
   <path class="st1" d="m48,50.9c0,1.7 0,3.3 0,5.1c-1.6,-0.4 -3.1,-0.8 -4.9,-1.2c1.3,-1.9 2.7,-3.3 4.9,-3.9z" id="svg_61"/>
   <path class="st1" d="m43.1,89.7c1.8,-0.4 3.2,-0.8 4.9,-1.2c0,1.8 0,3.4 0,5.1c-2.1,-0.6 -3.6,-2 -4.9,-3.9z" id="svg_62"/>
   <path class="st1" d="m39.4,52.1c1.9,-0.7 3.5,-1.2 5.2,-1.8c0,0.1 0.1,0.1 0.1,0.2c-1,1.1 -1.9,2.1 -3,3.4c-0.6,-0.6 -1.3,-1.1 -2.3,-1.8z" id="svg_63"/>
   <path class="st1" d="m39.4,92.4c1,-0.8 1.6,-1.3 2.3,-1.8c1.1,1.2 2,2.3 3,3.4c0,0.1 -0.1,0.1 -0.1,0.2c-1.6,-0.6 -3.2,-1.1 -5.2,-1.8z" id="svg_64"/>
   <path class="st1" d="m56.8,90.6c0.6,0.5 1.3,1 2.3,1.8c-1.9,0.7 -3.6,1.2 -5.2,1.8c0,-0.1 0,-0.1 -0.1,-0.2c0.9,-1.1 1.9,-2.2 3,-3.4z" id="svg_65"/>
   <path class="st1" d="m56.8,53.9c-1.1,-1.2 -2.1,-2.3 -3,-3.4c0,-0.1 0,-0.1 0,-0.2c1.6,0.6 3.3,1.1 5.2,1.8c-1,0.7 -1.6,1.2 -2.2,1.8z" id="svg_66"/>
   <path class="st0" d="m100.7,121.3c0,-0.7 0.1,-1.1 0.1,-1.7c0.7,0.2 1.2,0.3 1.8,0.5c0.1,0 0.1,0.5 0,0.5c-0.6,0.3 -1.2,0.4 -1.9,0.7z" id="svg_67"/>
   <path class="st2" d="m101.7,121.1c0.8,0 1,-0.3 1,-0.7c0,-0.4 -0.2,-0.6 -0.9,-0.6l-1,0l0,1.3c0,0 0.9,0 0.9,0zm-0.9,0.8l0,2.2l-0.9,0l0,-5.1l1.8,0c1,0 2,0.3 2,1.4c0,0.6 -0.4,1 -1.1,1.2l0,0c0.7,0.1 0.8,0.5 0.9,1s0.1,1 0.3,1.5l-1.1,0c-0.1,-0.3 -0.1,-0.6 -0.2,-0.9c-0.1,-0.4 -0.1,-0.8 -0.3,-1.1c-0.2,-0.2 -0.5,-0.2 -0.8,-0.2l-0.6,0m4.7,-0.3c0,-2 -1.7,-3.5 -3.8,-3.5c-2.1,0 -3.8,1.6 -3.8,3.5c0,2 1.7,3.6 3.8,3.6c2.2,-0.1 3.8,-1.7 3.8,-3.6m-8.5,0c0,-2.4 2.1,-4.3 4.7,-4.3s4.6,1.9 4.6,4.3s-2.1,4.3 -4.6,4.3c-2.5,0 -4.7,-2 -4.7,-4.3" id="svg_68"/>
  </g>
 </g>
</svg>